<?xml version="1.0" encoding="UTF-8"?>
<svg height="16px" viewBox="0 0 16 16" width="16px" xmlns="http://www.w3.org/2000/svg">
    <g fill="#241f31">
        <path d="m 7.378906 10.199219 c 0 1.105469 -0.894531 2 -2 2 c -1.101562 0 -2 -0.894531 -2 -2 s 0.898438 -2 2 -2 c 1.105469 0 2 0.894531 2 2 z m 0 0"/>
        <path d="m 12.375 10.199219 c 0 1.105469 -0.898438 2 -2 2 c -1.105469 0 -2.003906 -0.894531 -2.003906 -2 s 0.898437 -2 2.003906 -2 c 1.101562 0 2 0.894531 2 2 z m 0 0"/>
        <path d="m 6.125 4.25 h 1.25 v 5.949219 h -1.25 z m 0 0"/>
        <path d="m 11.125 4.25 h 1.25 v 5.976562 h -1.25 z m 0 0"/>
        <path d="m 6.125 4.25 h 6.25 v 1.25 h -6.25 z m 0 0"/>
        <path d="m 2.417969 0 c -1.328125 0 -2.417969 1.089844 -2.417969 2.417969 v 11.164062 c 0 1.328125 1.089844 2.417969 2.417969 2.417969 h 11.164062 c 1.328125 0 2.417969 -1.089844 2.417969 -2.417969 v -11.164062 c 0 -1.328125 -1.089844 -2.417969 -2.417969 -2.417969 z m 0 1.117188 h 11.164062 c 0.730469 0 1.300781 0.570312 1.300781 1.300781 v 11.164062 c 0 0.730469 -0.570312 1.300781 -1.300781 1.300781 h -11.164062 c -0.730469 0 -1.300781 -0.570312 -1.300781 -1.300781 v -11.164062 c 0 -0.730469 0.570312 -1.300781 1.300781 -1.300781 z m 0 0"/>
    </g>
</svg>
