<?xml version="1.0" encoding="UTF-8"?>
<svg height="128px" viewBox="0 0 128 128" width="128px" xmlns="http://www.w3.org/2000/svg" xmlns:xlink="http://www.w3.org/1999/xlink">
    <linearGradient id="a" gradientUnits="userSpaceOnUse" x1="8.0000155" x2="120.0000155" y1="115.999977" y2="115.999977">
        <stop offset="0" stop-color="#1a5fb4"/>
        <stop offset="0.0334554" stop-color="#3584e4"/>
        <stop offset="0.0713653" stop-color="#1a5fb4"/>
        <stop offset="0.928571" stop-color="#1a5fb4"/>
        <stop offset="0.964286" stop-color="#3584e4"/>
        <stop offset="1" stop-color="#1a5fb4"/>
    </linearGradient>
    <clipPath id="b">
        <rect height="128" width="128"/>
    </clipPath>
    <clipPath id="c">
        <rect height="128" width="128"/>
    </clipPath>
    <filter id="d" height="100%" width="100%" x="0%" y="0%">
        <feColorMatrix in="SourceGraphic" type="matrix" values="0 0 0 0 1 0 0 0 0 1 0 0 0 0 1 0 0 0 1 0"/>
    </filter>
    <mask id="e">
        <g clip-path="url(#c)" filter="url(#d)">
            <g clip-path="url(#b)">
                <path d="m 348.426641 174.170924 c 0 1.340673 -1.086211 2.430682 -2.430681 2.430682 c -1.340672 0 -2.43068 -1.090009 -2.43068 -2.430682 s 1.090008 -2.430681 2.43068 -2.430681 c 1.34447 0 2.430681 1.090008 2.430681 2.430681 z m 0 0" fill="none" stroke="#241f31" stroke-width="1.94455" transform="matrix(1.028519 0 0 1.028518 -273.863266 -99.387924)"/>
                <path d="m 348.426641 174.170924 c 0 1.340673 -1.086211 2.430682 -2.430681 2.430682 c -1.340672 0 -2.43068 -1.090009 -2.43068 -2.430682 s 1.090008 -2.430681 2.43068 -2.430681 c 1.34447 0 2.430681 1.090008 2.430681 2.430681 z m 0 0" fill="none" stroke="#241f31" stroke-width="1.94455" transform="matrix(1.028519 0 0 1.028518 -265.863266 -99.387924)"/>
                <path d="m 83.5 70.25 h 2 v 9.515625 h -2 z m 0 0" fill="#241f31"/>
                <path d="m 91.5 70.25 h 2 v 9.5625 h -2 z m 0 0" fill="#241f31"/>
                <path d="m 83.5 70.25 h 10 v 2 h -10 z m 0 0" fill="#241f31"/>
                <path d="m 16 40 h 96 c 4.417969 0 8 3.582031 8 8 v 60 c 0 4.417969 -3.582031 8 -8 8 h -96 c -4.417969 0 -8 -3.582031 -8 -8 v -60 c 0 -4.417969 3.582031 -8 8 -8 z m 0 0" fill="url(#a)"/>
                <path d="m 16 28 h 96 c 4.417969 0 8 3.582031 8 8 v 68 c 0 4.417969 -3.582031 8 -8 8 h -96 c -4.417969 0 -8 -3.582031 -8 -8 v -68 c 0 -4.417969 3.582031 -8 8 -8 z m 0 0" fill="#3d3846"/>
                <path d="m 64 69 c -13.363281 23.144531 -29.101562 25 -56 25 v 10 c 0 4.433594 3.566406 8 8 8 h 96 c 4.433594 0 8 -3.566406 8 -8 v -60 c -27.09375 0 -41.476562 -0.15625 -56 25 z m 0 0" fill="#3584e4"/>
                <path d="m 348.426641 174.170933 c 0 1.342277 -1.088405 2.430682 -2.430681 2.430682 s -2.43068 -1.088405 -2.43068 -2.430682 s 1.088404 -2.430682 2.43068 -2.430682 s 2.430681 1.088405 2.430681 2.430682 z m 0 0" fill="none" stroke="#e66100" stroke-width="1.94455" transform="matrix(2.892708 0 0 2.892707 -923.021686 -411.481687)"/>
                <path d="m 348.426641 174.170933 c 0 1.342277 -1.088405 2.430682 -2.430681 2.430682 s -2.43068 -1.088405 -2.43068 -2.430682 s 1.088404 -2.430682 2.43068 -2.430682 s 2.430681 1.088405 2.430681 2.430682 z m 0 0" fill="none" stroke="#e66100" stroke-width="1.94455" transform="matrix(2.892708 0 0 2.892707 -900.521686 -411.481687)"/>
                <path d="m 82.0625 65.625 h 5.625 v 26.761719 h -5.625 z m 0 0" fill="#e66100"/>
                <path d="m 104.5625 65.625 h 5.625 v 26.894531 h -5.625 z m 0 0" fill="#e66100"/>
                <path d="m 82.0625 65.625 h 28.125 v 5.625 h -28.125 z m 0 0" fill="#e66100"/>
            </g>
        </g>
    </mask>
    <mask id="f">
        <g filter="url(#d)">
            <rect fill-opacity="0.8" height="128" width="128"/>
        </g>
    </mask>
    <linearGradient id="g" gradientTransform="matrix(0 0.37 -0.98462 0 295.38501 -30.360001)" gradientUnits="userSpaceOnUse" x1="300" x2="428" y1="235" y2="235">
        <stop offset="0" stop-color="#f9f06b"/>
        <stop offset="1" stop-color="#f5c211"/>
    </linearGradient>
    <clipPath id="h">
        <rect height="128" width="128"/>
    </clipPath>
    <clipPath id="i">
        <rect height="128" width="128"/>
    </clipPath>
    <path d="m 348.426641 174.170924 c 0 1.340673 -1.086211 2.430682 -2.430681 2.430682 c -1.340672 0 -2.43068 -1.090009 -2.43068 -2.430682 s 1.090008 -2.430681 2.43068 -2.430681 c 1.34447 0 2.430681 1.090008 2.430681 2.430681 z m 0 0" fill="none" stroke="#241f31" stroke-width="1.94455" transform="matrix(1.028519 0 0 1.028518 -273.863266 -99.387924)"/>
    <path d="m 348.426641 174.170924 c 0 1.340673 -1.086211 2.430682 -2.430681 2.430682 c -1.340672 0 -2.43068 -1.090009 -2.43068 -2.430682 s 1.090008 -2.430681 2.43068 -2.430681 c 1.34447 0 2.430681 1.090008 2.430681 2.430681 z m 0 0" fill="none" stroke="#241f31" stroke-width="1.94455" transform="matrix(1.028519 0 0 1.028518 -265.863266 -99.387924)"/>
    <g fill="#241f31">
        <path d="m 83.5 70.25 h 2 v 9.515625 h -2 z m 0 0"/>
        <path d="m 91.5 70.25 h 2 v 9.5625 h -2 z m 0 0"/>
        <path d="m 83.5 70.25 h 10 v 2 h -10 z m 0 0"/>
    </g>
    <path d="m 16 40 h 96 c 4.417969 0 8 3.582031 8 8 v 60 c 0 4.417969 -3.582031 8 -8 8 h -96 c -4.417969 0 -8 -3.582031 -8 -8 v -60 c 0 -4.417969 3.582031 -8 8 -8 z m 0 0" fill="url(#a)"/>
    <path d="m 16 28 h 96 c 4.417969 0 8 3.582031 8 8 v 68 c 0 4.417969 -3.582031 8 -8 8 h -96 c -4.417969 0 -8 -3.582031 -8 -8 v -68 c 0 -4.417969 3.582031 -8 8 -8 z m 0 0" fill="#3d3846"/>
    <path d="m 64 69 c -13.363281 23.144531 -29.101562 25 -56 25 v 10 c 0 4.433594 3.566406 8 8 8 h 96 c 4.433594 0 8 -3.566406 8 -8 v -60 c -27.09375 0 -41.476562 -0.15625 -56 25 z m 0 0" fill="#3584e4"/>
    <path d="m 348.426641 174.170933 c 0 1.342277 -1.088405 2.430682 -2.430681 2.430682 s -2.43068 -1.088405 -2.43068 -2.430682 s 1.088404 -2.430682 2.43068 -2.430682 s 2.430681 1.088405 2.430681 2.430682 z m 0 0" fill="none" stroke="#e66100" stroke-width="1.94455" transform="matrix(2.892708 0 0 2.892707 -923.021686 -411.481687)"/>
    <path d="m 348.426641 174.170933 c 0 1.342277 -1.088405 2.430682 -2.430681 2.430682 s -2.43068 -1.088405 -2.43068 -2.430682 s 1.088404 -2.430682 2.43068 -2.430682 s 2.430681 1.088405 2.430681 2.430682 z m 0 0" fill="none" stroke="#e66100" stroke-width="1.94455" transform="matrix(2.892708 0 0 2.892707 -900.521686 -411.481687)"/>
    <path d="m 82.0625 65.625 h 5.625 v 26.761719 h -5.625 z m 0 0" fill="#e66100"/>
    <path d="m 104.5625 65.625 h 5.625 v 26.894531 h -5.625 z m 0 0" fill="#e66100"/>
    <path d="m 82.0625 65.625 h 28.125 v 5.625 h -28.125 z m 0 0" fill="#e66100"/>
    <g clip-path="url(#i)" mask="url(#e)">
        <g clip-path="url(#h)" mask="url(#f)">
            <path d="m 128 80.640625 v 47.359375 h -128 v -47.359375 z m 0 0" fill="url(#g)"/>
            <path d="m 13.308594 80.640625 l 47.355468 47.359375 h 21.214844 l -47.359375 -47.359375 z m 42.421875 0 l 47.363281 47.359375 h 21.214844 l -47.363282 -47.359375 z m 42.429687 0 l 29.839844 29.839844 v -21.210938 l -8.628906 -8.628906 z m -98.160156 7.90625 v 21.214844 l 18.238281 18.238281 h 21.214844 z m 0 0"/>
        </g>
    </g>
</svg>
