<?xml version="1.0" encoding="UTF-8"?>
<svg height="16px" viewBox="0 0 16 16" width="16px" xmlns="http://www.w3.org/2000/svg">
    <path d="m 1.636719 0 c -0.910157 0 -1.636719 0.769531 -1.636719 1.679688 v 12.636718 c 0 0.914063 0.726562 1.683594 1.636719 1.683594 h 12.726562 c 0.910157 0 1.636719 -0.769531 1.636719 -1.679688 v -12.636718 c 0 -0.914063 -0.726562 -1.683594 -1.636719 -1.683594 z m 0 0.957031 h 12.726562 c 0.375 0 0.679688 0.304688 0.679688 0.722657 v 0.65625 h -14.085938 v -0.65625 c 0 -0.417969 0.304688 -0.722657 0.679688 -0.722657 z m -0.679688 3.28125 h 14.085938 v 10.082031 c 0 0.417969 -0.304688 0.722657 -0.679688 0.722657 h -12.726562 c -0.375 0 -0.679688 -0.304688 -0.679688 -0.722657 z m 0 0" fill="#241f31"/>
</svg>
