<?xml version="1.0" encoding="UTF-8"?>
<svg height="128px" viewBox="0 0 128 128" width="128px" xmlns="http://www.w3.org/2000/svg" xmlns:xlink="http://www.w3.org/1999/xlink">
    <linearGradient id="a" gradientTransform="matrix(0.232143 0 0 0.328947 -8.566925 263.826965)" gradientUnits="userSpaceOnUse" x1="88.595886" x2="536.595886" y1="-449.394012" y2="-449.394012">
        <stop offset="0" stop-color="#a4744b"/>
        <stop offset="0.0384615" stop-color="#d8bda7"/>
        <stop offset="0.0768555" stop-color="#bf9573"/>
        <stop offset="0.923077" stop-color="#bf9573"/>
        <stop offset="0.961538" stop-color="#d8bda7"/>
        <stop offset="1" stop-color="#a4744b"/>
    </linearGradient>
    <clipPath id="b">
        <rect height="128" width="128"/>
    </clipPath>
    <clipPath id="c">
        <rect height="128" width="128"/>
    </clipPath>
    <filter id="d" height="100%" width="100%" x="0%" y="0%">
        <feColorMatrix in="SourceGraphic" type="matrix" values="0 0 0 0 1 0 0 0 0 1 0 0 0 0 1 0 0 0 1 0"/>
    </filter>
    <mask id="e">
        <g clip-path="url(#c)" filter="url(#d)">
            <g clip-path="url(#b)">
                <path d="m 20 16 h 88 c 4.417969 0 8 3.582031 8 8 v 84 c 0 4.417969 -3.582031 8 -8 8 h -88 c -4.417969 0 -8 -3.582031 -8 -8 v -84 c 0 -4.417969 3.582031 -8 8 -8 z m 0 0" fill="url(#a)"/>
                <path d="m 20 12 h 88 c 4.417969 0 8 3.582031 8 8 v 84 c 0 4.417969 -3.582031 8 -8 8 h -88 c -4.417969 0 -8 -3.582031 -8 -8 v -84 c 0 -4.417969 3.582031 -8 8 -8 z m 0 0" fill="#cdab8f"/>
                <path d="m 30.78125 196.738281 c -3.347656 0 -6.042969 2.800781 -6.042969 6.28125 v 5.921875 h 78.523438 v -5.921875 c 0 -3.480469 -2.695313 -6.28125 -6.042969 -6.28125 z m -6.042969 17.121094 v 55.121094 c 0 3.480469 2.695313 6.28125 6.042969 6.28125 h 66.4375 c 3.347656 0 6.042969 -2.800781 6.042969 -6.28125 v -55.121094 z m 0 0" fill="none" stroke="#986a44" stroke-width="1.47593" transform="matrix(1 0 0 1 0 -172)"/>
                <path d="m 43.195312 78.65625 h 2.078126 l 1.78125 -4.9375 h 6.9375 l 1.65625 4.9375 h 2.234374 l -5.859374 -16.65625 h -2.59375 z m 4.453126 -6.671875 l 2.953124 -8.28125 l 2.796876 8.28125 z m 12.601562 6.671875 h 2 v -5.8125 h 2.828125 c 3.71875 0 6.21875 -2.203125 6.21875 -5.546875 c 0 -3.1875 -2.359375 -5.296875 -5.859375 -5.296875 h -5.1875 z m 2 -7.53125 v -7.390625 h 2.953125 c 2.421875 0 4.046875 1.578125 4.046875 3.9375 c 0 2.25 -1.34375 3.453125 -3.8125 3.453125 z m 12.160156 7.53125 h 2 v -5.8125 h 2.828125 c 3.71875 0 6.21875 -2.203125 6.21875 -5.546875 c 0 -3.1875 -2.359375 -5.296875 -5.859375 -5.296875 h -5.1875 z m 2 -7.53125 v -7.390625 h 2.953125 c 2.421875 0 4.046875 1.578125 4.046875 3.9375 c 0 2.25 -1.34375 3.453125 -3.8125 3.453125 z m -33.386718 -16.0625" fill="#986a44"/>
            </g>
        </g>
    </mask>
    <mask id="f">
        <g filter="url(#d)">
            <rect fill-opacity="0.8" height="128" width="128"/>
        </g>
    </mask>
    <linearGradient id="g" gradientTransform="matrix(0 0.37 -0.98462 0 295.38501 -30.360001)" gradientUnits="userSpaceOnUse" x1="300" x2="428" y1="235" y2="235">
        <stop offset="0" stop-color="#f9f06b"/>
        <stop offset="1" stop-color="#f5c211"/>
    </linearGradient>
    <clipPath id="h">
        <rect height="128" width="128"/>
    </clipPath>
    <clipPath id="i">
        <rect height="128" width="128"/>
    </clipPath>
    <path d="m 20 16 h 88 c 4.417969 0 8 3.582031 8 8 v 84 c 0 4.417969 -3.582031 8 -8 8 h -88 c -4.417969 0 -8 -3.582031 -8 -8 v -84 c 0 -4.417969 3.582031 -8 8 -8 z m 0 0" fill="url(#a)"/>
    <path d="m 20 12 h 88 c 4.417969 0 8 3.582031 8 8 v 84 c 0 4.417969 -3.582031 8 -8 8 h -88 c -4.417969 0 -8 -3.582031 -8 -8 v -84 c 0 -4.417969 3.582031 -8 8 -8 z m 0 0" fill="#cdab8f"/>
    <path d="m 30.78125 24.738281 c -3.347656 0 -6.042969 2.800781 -6.042969 6.28125 v 5.921875 h 78.523438 v -5.921875 c 0 -3.480469 -2.695313 -6.28125 -6.042969 -6.28125 z m -6.042969 17.121094 v 55.121094 c 0 3.480469 2.695313 6.28125 6.042969 6.28125 h 66.4375 c 3.347656 0 6.042969 -2.800781 6.042969 -6.28125 v -55.121094 z m 0 0" fill="none" stroke="#986a44" stroke-width="1.47593"/>
    <path d="m 43.195312 78.65625 h 2.078126 l 1.78125 -4.9375 h 6.9375 l 1.65625 4.9375 h 2.234374 l -5.859374 -16.65625 h -2.59375 z m 4.453126 -6.671875 l 2.953124 -8.28125 l 2.796876 8.28125 z m 12.601562 6.671875 h 2 v -5.8125 h 2.828125 c 3.71875 0 6.21875 -2.203125 6.21875 -5.546875 c 0 -3.1875 -2.359375 -5.296875 -5.859375 -5.296875 h -5.1875 z m 2 -7.53125 v -7.390625 h 2.953125 c 2.421875 0 4.046875 1.578125 4.046875 3.9375 c 0 2.25 -1.34375 3.453125 -3.8125 3.453125 z m 12.160156 7.53125 h 2 v -5.8125 h 2.828125 c 3.71875 0 6.21875 -2.203125 6.21875 -5.546875 c 0 -3.1875 -2.359375 -5.296875 -5.859375 -5.296875 h -5.1875 z m 2 -7.53125 v -7.390625 h 2.953125 c 2.421875 0 4.046875 1.578125 4.046875 3.9375 c 0 2.25 -1.34375 3.453125 -3.8125 3.453125 z m -33.386718 -16.0625" fill="#986a44"/>
    <g clip-path="url(#i)" mask="url(#e)">
        <g clip-path="url(#h)" mask="url(#f)">
            <path d="m 128 80.640625 v 47.359375 h -128 v -47.359375 z m 0 0" fill="url(#g)"/>
            <path d="m 13.308594 80.640625 l 47.355468 47.359375 h 21.214844 l -47.359375 -47.359375 z m 42.421875 0 l 47.363281 47.359375 h 21.214844 l -47.363282 -47.359375 z m 42.429687 0 l 29.839844 29.839844 v -21.210938 l -8.628906 -8.628906 z m -98.160156 7.90625 v 21.214844 l 18.238281 18.238281 h 21.214844 z m 0 0"/>
        </g>
    </g>
</svg>
