<?xml version="1.0" encoding="UTF-8"?>
<svg height="16px" viewBox="0 0 16 16" width="16px" xmlns="http://www.w3.org/2000/svg">
    <g fill="#241f31">
        <path d="m 0 13 h 4 v 2 h -4 z m 0 0"/>
        <path d="m 5 13 h 4 v 2 h -4 z m 0 0"/>
        <path d="m 10 13 h 4 v 2 h -4 z m 0 0"/>
        <path d="m 5 10 h 4 v 2 h -4 z m 0 0"/>
        <path d="m 5 7 h 4 v 2 h -4 z m 0 0"/>
        <path d="m 5 4 h 4 v 2 h -4 z m 0 0"/>
        <path d="m 0 10 h 4 v 2 h -4 z m 0 0"/>
        <path d="m 0 7 h 4 v 2 h -4 z m 0 0"/>
        <path d="m 13 5 v 3.269531 c -0.304688 -0.175781 -0.648438 -0.269531 -1 -0.269531 c -1.105469 0 -2 0.894531 -2 2 s 0.894531 2 2 2 s 2 -0.894531 2 -2 v -3 h 2 v -2 z m 0 0"/>
    </g>
</svg>
