<?xml version="1.0" encoding="UTF-8"?>
<svg xmlns="http://www.w3.org/2000/svg" height="16px" viewBox="0 0 16 16" width="16px"><g fill="#222222"><path d="m 9.015625 0.996094 c -0.714844 0 -1.371094 0.382812 -1.730469 1 h -1.269531 c -1.671875 0 -3 1.359375 -3 3.023437 v 3.246094 c -0.617187 0.355469 -1 1.015625 -1 1.730469 s 0.382813 1.371094 1 1.730468 v 3.269532 h 2 v -3.269532 c 0.617187 -0.355468 1 -1.015624 1 -1.730468 s -0.382813 -1.371094 -1 -1.730469 v -3.246094 c 0 -0.390625 0.636719 -1.023437 1 -1.023437 h 1.269531 c 0.355469 0.617187 1.015625 1 1.730469 1 s 1.371094 -0.382813 1.730469 -1 h 4.269531 v -2 h -4.269531 c -0.355469 -0.617188 -1.015625 -1 -1.730469 -1 z m 0 1 c 0.550781 0 1 0.449218 1 1 c 0 0.550781 -0.449219 1 -1 1 s -1 -0.449219 -1 -1 c 0 -0.550782 0.449219 -1 1 -1 z m -5 7 c 0.550781 0 1 0.449218 1 1 c 0 0.550781 -0.449219 1 -1 1 s -1 -0.449219 -1 -1 c 0 -0.550782 0.449219 -1 1 -1 z m 0 0"/><path d="m 15.015625 3.996094 v 11 h -10 v -11 z m 0 0" fill-opacity="0.34902"/></g></svg>
